<svg xmlns="http://www.w3.org/2000/svg" width="168.496" height="151.321" viewBox="0 0 168.496 151.321"><g transform="translate(0 0)"><ellipse cx="73.578" cy="72.283" rx="73.578" ry="72.283" fill="#0074ff"/></g><g transform="translate(20.097 18.242)"><g transform="translate(18.309 74.955)"><path d="M1474.824,622.22l-6.3-1.022c-1.3-.211-2.065-1-1.7-1.755l26.113-54.253c.363-.755,1.723-1.2,3.022-.989l6.3,1.023c1.3.211,2.066,1,1.7,1.755l-26.112,54.253C1477.483,621.986,1476.123,622.431,1474.824,622.22Z" transform="translate(-1466.733 -564.148)" fill="#0037c1"/></g><g transform="translate(54.306 74.955)"><path d="M1548.607,622.22l6.3-1.022c1.3-.211,2.065-1,1.7-1.755L1530.5,565.19c-.363-.755-1.724-1.2-3.023-.989l-6.3,1.023c-1.3.211-2.065,1-1.7,1.755l26.113,54.253C1545.948,621.986,1547.308,622.431,1548.607,622.22Z" transform="translate(-1519.382 -564.148)" fill="#0037c1"/></g><ellipse cx="53.997" cy="53.047" rx="53.997" ry="53.047" fill="#fbbb21"/><g transform="translate(18.36 18.037)"><ellipse cx="35.637" cy="35.01" rx="35.637" ry="35.01" fill="#fff"/></g><g transform="translate(34.178 33.576)"><ellipse cx="19.82" cy="19.471" rx="19.82" ry="19.471" fill="#fbbb21"/></g><g transform="translate(43.14 42.381)"><ellipse cx="10.857" cy="10.666" rx="10.857" ry="10.666" fill="#e7573c"/></g><g transform="translate(53.481 3.598)"><path d="M1581.2,480.545l1.382,2.728,30.515-14.927-9.9-.5,5.565-8.064-30.515,14.927,1.387,2.74-49.24,24.109L1529,498.821l-10.825,10.651,15.174-2.08-1.389-2.739Z" transform="translate(-1518.174 -459.783)" fill="#003646"/></g></g></svg>