<svg xmlns="http://www.w3.org/2000/svg" width="171.569" height="151.571" viewBox="0 0 171.569 151.571"><g transform="translate(-31.392 -31.392)"><circle cx="75.786" cy="75.786" r="75.786" transform="translate(31.392 31.392)" fill="#fbbb21"/><path d="M615.87,494.782a3.18,3.18,0,0,1-2.022-.952,6,6,0,0,1-1.339-2.151c-.187-.472-.343-.956-.5-1.439a.223.223,0,0,0-.426,0,13.464,13.464,0,0,1-.881,2,4.812,4.812,0,0,1-1.083,1.46l-.06.048a3.016,3.016,0,0,1-1.743.449c-.245-.013-.306.389-.058.433a4.774,4.774,0,0,1,3.605,3.237,4.331,4.331,0,0,1,.2,1.414c-.006.263.351.282.434.059.544-1.473,1.173-3.114,2.677-3.849a2.623,2.623,0,0,1,1.192-.271A.221.221,0,0,0,615.87,494.782Z" transform="translate(-546.509 -417.035)" fill="#fff"/><path d="M585.019,525.461s23.441-32.969,56.65-34.158S701.8,525.461,701.8,525.461,671.361,557.57,643.41,557.57,585.019,525.461,585.019,525.461Z" transform="translate(-539.367 -417.412)" fill="#fff"/><ellipse cx="25.938" cy="25.938" rx="25.938" ry="25.938" transform="translate(76.231 81.086)"/><ellipse cx="5.839" cy="5.839" rx="5.839" ry="5.839" transform="translate(82.293 106.959)" fill="#424242"/><path d="M595.659,505.164a6.76,6.76,0,0,1-4.294-2.022,12.733,12.733,0,0,1-2.844-4.568c-.4-1-.73-2.031-1.063-3.057a.473.473,0,0,0-.9,0,28.58,28.58,0,0,1-1.871,4.253,10.237,10.237,0,0,1-2.3,3.1c-.042.035-.085.069-.129.1a6.4,6.4,0,0,1-3.7.953c-.52-.027-.65.827-.125.922a10.136,10.136,0,0,1,7.657,6.876,9.2,9.2,0,0,1,.433,3c-.014.557.746.6.921.125,1.155-3.129,2.492-6.615,5.686-8.174a5.566,5.566,0,0,1,2.533-.576A.469.469,0,0,0,595.659,505.164Z" transform="translate(-537.177 -418.648)" fill="#fff"/><circle cx="34.148" cy="34.148" r="34.148" transform="translate(101.326 96.75) rotate(-31.472)" fill="azure"/><rect width="17.439" height="43.185" rx="8.72" transform="translate(161.999 139.649) rotate(-39.593)" fill="#0037c1"/><path d="M716.445,562.214a40.118,40.118,0,0,1-9.013-1.029A39.86,39.86,0,0,1,677.523,513.4h0a39.847,39.847,0,1,1,38.922,48.81Zm-.14-72.84a33.053,33.053,0,1,0,7.451.851A33.21,33.21,0,0,0,716.3,489.373Z" transform="translate(-568.299 -414.626)" fill="#0037c1"/></g></svg>