<svg xmlns="http://www.w3.org/2000/svg" width="82.42" height="285.722" viewBox="0 0 82.42 285.722"><g transform="translate(82.42) rotate(90)" opacity="0.5"><ellipse cx="8.242" cy="8.242" rx="8.242" ry="8.242" transform="translate(0 0)" fill="#0037c1"/><ellipse cx="8.242" cy="8.242" rx="8.242" ry="8.242" transform="translate(38.462 0)" fill="#0037c1"/><ellipse cx="8.242" cy="8.242" rx="8.242" ry="8.242" transform="translate(76.925 0)" fill="#0037c1"/><ellipse cx="8.242" cy="8.242" rx="8.242" ry="8.242" transform="translate(115.388 0)" fill="#0037c1"/><ellipse cx="8.242" cy="8.242" rx="8.242" ry="8.242" transform="translate(153.85 0)" fill="#0037c1"/><ellipse cx="8.242" cy="8.242" rx="8.242" ry="8.242" transform="translate(192.312 0)" fill="#0037c1"/><ellipse cx="8.242" cy="8.242" rx="8.242" ry="8.242" transform="translate(230.775 0)" fill="#0037c1"/><ellipse cx="8.242" cy="8.242" rx="8.242" ry="8.242" transform="translate(269.238 0)" fill="#0037c1"/><ellipse cx="8.242" cy="8.242" rx="8.242" ry="8.242" transform="translate(0 32.968)" fill="#0037c1"/><ellipse cx="8.242" cy="8.242" rx="8.242" ry="8.242" transform="translate(38.462 32.968)" fill="#0037c1"/><ellipse cx="8.242" cy="8.242" rx="8.242" ry="8.242" transform="translate(76.925 32.968)" fill="#0037c1"/><ellipse cx="8.242" cy="8.242" rx="8.242" ry="8.242" transform="translate(115.388 32.968)" fill="#0037c1"/><ellipse cx="8.242" cy="8.242" rx="8.242" ry="8.242" transform="translate(153.85 32.968)" fill="#0037c1"/><ellipse cx="8.242" cy="8.242" rx="8.242" ry="8.242" transform="translate(192.312 32.968)" fill="#0037c1"/><ellipse cx="8.242" cy="8.242" rx="8.242" ry="8.242" transform="translate(230.775 32.968)" fill="#0037c1"/><ellipse cx="8.242" cy="8.242" rx="8.242" ry="8.242" transform="translate(269.238 32.968)" fill="#0037c1"/><ellipse cx="8.242" cy="8.242" rx="8.242" ry="8.242" transform="translate(0 65.936)" fill="#0037c1"/><ellipse cx="8.242" cy="8.242" rx="8.242" ry="8.242" transform="translate(38.462 65.936)" fill="#0037c1"/><ellipse cx="8.242" cy="8.242" rx="8.242" ry="8.242" transform="translate(76.925 65.936)" fill="#0037c1"/><ellipse cx="8.242" cy="8.242" rx="8.242" ry="8.242" transform="translate(115.388 65.936)" fill="#0037c1"/><ellipse cx="8.242" cy="8.242" rx="8.242" ry="8.242" transform="translate(153.85 65.936)" fill="#0037c1"/><ellipse cx="8.242" cy="8.242" rx="8.242" ry="8.242" transform="translate(192.312 65.936)" fill="#0037c1"/><ellipse cx="8.242" cy="8.242" rx="8.242" ry="8.242" transform="translate(230.775 65.936)" fill="#0037c1"/><ellipse cx="8.242" cy="8.242" rx="8.242" ry="8.242" transform="translate(269.238 65.936)" fill="#0037c1"/></g></svg>