<svg xmlns="http://www.w3.org/2000/svg" width="323.55" height="59.955" viewBox="0 0 323.55 59.955"><g transform="translate(-1052.053 0)"><g transform="translate(1249.396)" opacity="0.5"><ellipse cx="3.641" cy="3.641" rx="3.641" ry="3.641" transform="translate(0 0)" fill="#0037c1"/><ellipse cx="3.641" cy="3.641" rx="3.641" ry="3.641" transform="translate(16.989 0)" fill="#0037c1"/><ellipse cx="3.641" cy="3.641" rx="3.641" ry="3.641" transform="translate(33.979 0)" fill="#0037c1"/><ellipse cx="3.641" cy="3.641" rx="3.641" ry="3.641" transform="translate(50.968 0)" fill="#0037c1"/><ellipse cx="3.641" cy="3.641" rx="3.641" ry="3.641" transform="translate(67.958 0)" fill="#0037c1"/><ellipse cx="3.641" cy="3.641" rx="3.641" ry="3.641" transform="translate(84.947 0)" fill="#0037c1"/><ellipse cx="3.641" cy="3.641" rx="3.641" ry="3.641" transform="translate(101.936 0)" fill="#0037c1"/><ellipse cx="3.641" cy="3.641" rx="3.641" ry="3.641" transform="translate(118.926 0)" fill="#0037c1"/><ellipse cx="3.641" cy="3.641" rx="3.641" ry="3.641" transform="translate(0 14.562)" fill="#0037c1"/><ellipse cx="3.641" cy="3.641" rx="3.641" ry="3.641" transform="translate(16.989 14.562)" fill="#0037c1"/><ellipse cx="3.641" cy="3.641" rx="3.641" ry="3.641" transform="translate(33.979 14.562)" fill="#0037c1"/><ellipse cx="3.641" cy="3.641" rx="3.641" ry="3.641" transform="translate(50.968 14.562)" fill="#0037c1"/><ellipse cx="3.641" cy="3.641" rx="3.641" ry="3.641" transform="translate(67.958 14.562)" fill="#0037c1"/><ellipse cx="3.641" cy="3.641" rx="3.641" ry="3.641" transform="translate(84.947 14.562)" fill="#0037c1"/><ellipse cx="3.641" cy="3.641" rx="3.641" ry="3.641" transform="translate(101.936 14.562)" fill="#0037c1"/><ellipse cx="3.641" cy="3.641" rx="3.641" ry="3.641" transform="translate(118.926 14.562)" fill="#0037c1"/><ellipse cx="3.641" cy="3.641" rx="3.641" ry="3.641" transform="translate(0 29.125)" fill="#0037c1"/><ellipse cx="3.641" cy="3.641" rx="3.641" ry="3.641" transform="translate(16.989 29.125)" fill="#0037c1"/><ellipse cx="3.641" cy="3.641" rx="3.641" ry="3.641" transform="translate(33.979 29.125)" fill="#0037c1"/><ellipse cx="3.641" cy="3.641" rx="3.641" ry="3.641" transform="translate(50.968 29.125)" fill="#0037c1"/><ellipse cx="3.641" cy="3.641" rx="3.641" ry="3.641" transform="translate(67.958 29.125)" fill="#0037c1"/><ellipse cx="3.641" cy="3.641" rx="3.641" ry="3.641" transform="translate(84.947 29.125)" fill="#0037c1"/><ellipse cx="3.641" cy="3.641" rx="3.641" ry="3.641" transform="translate(101.936 29.125)" fill="#0037c1"/><ellipse cx="3.641" cy="3.641" rx="3.641" ry="3.641" transform="translate(118.926 29.125)" fill="#0037c1"/></g><path d="M700.259,72.117H684.278V56.136h-7.99V72.117H660.306v7.991h15.981V96.09h7.99V80.108h15.981Z" transform="translate(391.747 -36.135)" fill="#fec30f"/></g></svg>