<svg xmlns="http://www.w3.org/2000/svg" width="35.307" height="35.308" viewBox="0 0 35.307 35.308"><path d="M14.905,5.838A9.059,9.059,0,1,0,23.964,14.9a9.058,9.058,0,0,0-9.059-9.059Zm0,14.939a5.88,5.88,0,1,1,5.88-5.88A5.878,5.878,0,0,1,14.905,20.777Z" transform="translate(2.754 2.749)" fill="#171717"/><path d="M24.933.112c-3.248-.152-11.294-.144-14.545,0A10.55,10.55,0,0,0,2.979,2.967c-3.4,3.4-2.961,7.971-2.961,14.68,0,6.867-.382,11.336,2.961,14.68,3.409,3.407,8.05,2.961,14.68,2.961,6.8,0,9.15,0,11.556-.927,3.27-1.27,5.739-4.193,5.98-9.443.153-3.25.144-11.294,0-14.545C34.9,4.176,31.578.418,24.933.112Zm5.142,29.97c-2.226,2.226-5.314,2.027-12.457,2.027-7.356,0-10.305.109-12.457-2.049-2.479-2.467-2.03-6.429-2.03-12.435,0-8.128-.834-13.982,7.323-14.4,1.874-.066,2.426-.088,7.144-.088l.066.044c7.84,0,13.99-.821,14.36,7.335.084,1.861.1,2.42.1,7.131,0,7.27.137,10.238-2.051,12.435Z" transform="translate(0 -0.001)" fill="#171717"/><circle cx="2.117" cy="2.117" r="2.117" transform="translate(24.961 6.113)" fill="#171717"/></svg>