<svg xmlns="http://www.w3.org/2000/svg" width="36.394" height="36.394" viewBox="0 0 36.394 36.394"><path d="M32,32.483v0h.009V19.134c0-6.53-1.406-11.56-9.039-11.56A7.925,7.925,0,0,0,15.833,11.5h-.106V8.184H8.489v24.3h7.537V20.45c0-3.168.6-6.231,4.523-6.231,3.865,0,3.923,3.615,3.923,6.434v11.83Z" transform="translate(4.384 3.911)" fill="#171717"/><path d="M.4,7.977H7.942v24.3H.4Z" transform="translate(0.205 4.119)" fill="#171717"/><path d="M4.37,0a4.391,4.391,0,1,0,4.37,4.37A4.372,4.372,0,0,0,4.37,0Z" fill="#171717"/></svg>