<svg xmlns="http://www.w3.org/2000/svg" width="163.952" height="165.154" viewBox="0 0 163.952 165.154"><g transform="translate(-33.955 -33.955)"><g transform="translate(0 0)"><circle cx="81.976" cy="81.976" r="81.976" transform="translate(33.955 33.955)" fill="#0074ff"/></g><g transform="translate(145.583 121.792)"><path d="M1210.043,555.293a5.05,5.05,0,0,1-3.306-1.687,10.788,10.788,0,0,1-2.189-3.811c-.306-.837-.562-1.694-.818-2.55a.357.357,0,0,0-.7,0,24.9,24.9,0,0,1-1.441,3.548,8.517,8.517,0,0,1-1.77,2.588c-.032.029-.065.057-.1.084a4.641,4.641,0,0,1-2.849.8c-.4-.023-.5.69-.1.768a8.058,8.058,0,0,1,5.893,5.736,8.274,8.274,0,0,1,.334,2.5.36.36,0,0,0,.709.1c.889-2.61,1.918-5.519,4.377-6.819a4.018,4.018,0,0,1,1.95-.48C1210.51,556.084,1210.505,555.316,1210.043,555.293Z" transform="translate(-1196.523 -546.966)" fill="#fff"/></g><g transform="translate(79.334 85.786)"><g transform="translate(42.307 9.192)"><path d="M1180.651,541.582c-8.735,0-15.842-6.758-15.842-15.066s7.106-15.067,15.842-15.067,15.841,6.759,15.841,15.067S1189.386,541.582,1180.651,541.582Zm0-26.151c-6.54,0-11.861,4.972-11.861,11.085s5.321,11.085,11.861,11.085,11.86-4.973,11.86-11.085S1187.19,515.432,1180.651,515.432Z" transform="translate(-1164.809 -511.45)" fill="#c4901a"/></g><g transform="translate(0 9.192)"><path d="M1124.611,541.582c-8.735,0-15.841-6.758-15.841-15.066s7.106-15.067,15.841-15.067,15.841,6.759,15.841,15.067S1133.346,541.582,1124.611,541.582Zm0-26.151c-6.539,0-11.86,4.972-11.86,11.085s5.321,11.085,11.86,11.085,11.86-4.973,11.86-11.085S1131.151,515.432,1124.611,515.432Z" transform="translate(-1108.77 -511.45)" fill="#c4901a"/></g><g transform="translate(15.841 4.387)"><path d="M1172.848,521.066V505.085c-12.5,1.077-9.839.942-19.839.942l1.639-.942c-10,0-7.094,0-24.825.37l-.07,15.611c0,10.258,8.3,22.169,17.578,23.616v14.091l-9.521,13.283H1166.2l-9.521-13.364V544.6C1165.64,542.83,1172.848,531.149,1172.848,521.066Z" transform="translate(-1129.753 -505.085)" fill="#fbbb21"/></g><g transform="translate(15.841)"><path d="M1172.848,504.242c0,2.744-9.648,4.968-21.547,4.968s-21.548-2.224-21.548-4.968,9.648-4.968,21.548-4.968S1172.848,501.5,1172.848,504.242Z" transform="translate(-1129.753 -499.274)" fill="#332612"/></g><g transform="translate(17.508 71.358)"><rect width="43.399" height="35.472" fill="#c4901a"/></g></g><g transform="translate(84.093 78.095)"><path d="M1125.978,495.8a4.071,4.071,0,0,1-2.667-1.36,8.7,8.7,0,0,1-1.765-3.073c-.247-.676-.454-1.367-.66-2.057a.288.288,0,0,0-.561,0,20.067,20.067,0,0,1-1.163,2.862,6.862,6.862,0,0,1-1.428,2.087c-.026.024-.053.047-.079.069a3.745,3.745,0,0,1-2.3.642c-.323-.018-.4.556-.078.62a6.5,6.5,0,0,1,4.754,4.626,6.655,6.655,0,0,1,.268,2.021.291.291,0,0,0,.572.084c.717-2.106,1.547-4.451,3.529-5.5a3.242,3.242,0,0,1,1.573-.387C1126.354,496.439,1126.351,495.82,1125.978,495.8Z" transform="translate(-1115.074 -489.086)" fill="#fff"/></g><ellipse cx="6.606" cy="6.606" rx="6.606" ry="6.606" transform="translate(127.855 61.717)" fill="#c4901a"/><ellipse cx="6.606" cy="6.606" rx="6.606" ry="6.606" transform="translate(127.041 61.717)" fill="#fbbb21"/><path d="M1183.823,474.648a4.606,4.606,0,1,1-4.605-4.606A4.605,4.605,0,0,1,1183.823,474.648Z" transform="translate(-1045.57 -406.324)" fill="#ffd094"/><ellipse cx="7.462" cy="7.462" rx="7.462" ry="7.462" transform="translate(96.095 52.949)" fill="#c4901a"/><ellipse cx="7.462" cy="7.462" rx="7.462" ry="7.462" transform="translate(95.177 52.949)" fill="#fbbb21"/><ellipse cx="5.202" cy="5.202" rx="5.202" ry="5.202" transform="translate(97.436 55.209)" fill="#ffd094"/><circle cx="7.945" cy="7.945" r="7.945" transform="translate(103.422 86.323) rotate(-45)" fill="#c4901a"/><circle cx="7.945" cy="7.945" r="7.945" transform="translate(102.444 86.323) rotate(-45)" fill="#fbbb21"/><ellipse cx="5.539" cy="5.539" rx="5.539" ry="5.539" transform="translate(108.141 80.784)" fill="#ffd094"/><g transform="translate(99.012 91.862)"><path d="M1134.845,507.322h33.828s-6.587,3.024-9.284,3.078S1134.3,509.8,1134.845,507.322Z" transform="translate(-1134.835 -507.322)" fill="#332612"/></g><g transform="translate(67.436 170.894)"><rect width="33.672" height="28.216" fill="#04369b"/></g><g transform="translate(137.521 170.894)"><rect width="33.672" height="28.216" fill="#04369b"/></g><g transform="translate(96.843 163.77)"><rect width="43.399" height="35.34" fill="#0037c1"/></g><g transform="translate(89.686 52.949)"><path d="M1130.038,460.071a2.912,2.912,0,0,1-1.847-.87,5.48,5.48,0,0,1-1.223-1.965c-.171-.432-.314-.873-.457-1.315a.2.2,0,0,0-.389,0,12.3,12.3,0,0,1-.8,1.829,4.4,4.4,0,0,1-.99,1.335l-.055.044a2.759,2.759,0,0,1-1.591.41c-.224-.011-.279.356-.054.4a4.358,4.358,0,0,1,3.293,2.958,3.938,3.938,0,0,1,.187,1.291c-.006.24.321.258.4.054.5-1.346,1.072-2.846,2.445-3.517a2.4,2.4,0,0,1,1.09-.248A.2.2,0,0,0,1130.038,460.071Z" transform="translate(-1122.482 -455.778)" fill="#fff"/></g></g></svg>